# xmcd
#
# Track frame offsets: 
#        150
#        12687
#        25050
#        37965
#        52342
#        65022
#        77677
#        91112
#        104192
#        117137
#        130770
#        144657
#        158430
#        170055
#        182985
#        197335
#        210027
#        222205
#        235902
#        248815
#        261822
#        275785
#        289890
#        302102
#        316392
#        329545
#        341660
#
# Disc length: 4721 seconds
#
# Revision: 3
# Processed by: cddbd v1.5.2PL0 Copyright (c) Steve Scherf et al.
# Submitted via: ExactAudioCopy v1.1
#
DISCID=95126f1b
DTITLE=Bob Wills and His Texas Playboys - San Antonio Rose (Bear Family)
DTITLE=Various Artist - Disc 2
DYEAR=2000
DGENRE=Country
TTITLE0=She's Killing Me
TTITLE1=Weary Of The Same Ol' Stuff
TTITLE2=No Matter How She Done It
TTITLE3=Bluin' The Blues
TTITLE4=Steel Guitar Rag
TTITLE5=Get Along Home, Cindy
TTITLE6=Trouble In Mind
TTITLE7=What's The Matter With The Mill
TTITLE8=Sugar Blues
TTITLE9=Basin Street Blues
TTITLE10=Red Hot Gal Of Mine
TTITLE11=Darktown Strutters' Ball
TTITLE12=Too Busy
TTITLE13=Back Home Again In Indiana
TTITLE14=Away Out There
TTITLE15=Crippled Turkey
TTITLE16=Fan It
TTITLE17=Red Head
TTITLE18=Mean Mama Blues
TTITLE19=There's No Disappointment In Heaven
TTITLE20=Rockin' Alone In An Old Rockin' Chair
TTITLE21=Sleepy Time In Sleepy Hollow
TTITLE22=Bring It On Down To My House
TTITLE23=I've Got The Wonder Where She Went Blues
TTITLE24=Right Or Wrong
TTITLE25=Swing Blues #1
TTITLE26=Swing Blues #2
EXTD=
EXTT0=
EXTT1=
EXTT2=
EXTT3=
EXTT4=
EXTT5=
EXTT6=
EXTT7=
EXTT8=
EXTT9=
EXTT10=
EXTT11=
EXTT12=
EXTT13=
EXTT14=
EXTT15=
EXTT16=
EXTT17=
EXTT18=
EXTT19=
EXTT20=
EXTT21=
EXTT22=
EXTT23=
EXTT24=
EXTT25=
EXTT26=
PLAYORDER=
